<?xml version="1.0" encoding="UTF-8" standalone="no"?>
<!-- Created with Inkscape (http://www.inkscape.org/) -->

<svg
   version="1.1"
   id="svg1"
   width="400"
   height="200"
   viewBox="0 0 400 200"
   sodipodi:docname="signature.svg"
   inkscape:version="1.4.2 (f4327f4, 2025-05-13)"
   xmlns:inkscape="http://www.inkscape.org/namespaces/inkscape"
   xmlns:sodipodi="http://sodipodi.sourceforge.net/DTD/sodipodi-0.dtd"
   xmlns="http://www.w3.org/2000/svg"
   xmlns:svg="http://www.w3.org/2000/svg">
  <defs
     id="defs1" />
  <sodipodi:namedview
     id="namedview1"
     pagecolor="#ffffff"
     bordercolor="#000000"
     borderopacity="0.25"
     inkscape:showpageshadow="2"
     inkscape:pageopacity="0.0"
     inkscape:pagecheckerboard="0"
     inkscape:deskcolor="#d1d1d1"
     showgrid="false"
     inkscape:zoom="1.2003138"
     inkscape:cx="98.307629"
     inkscape:cy="78.312857"
     inkscape:window-width="1152"
     inkscape:window-height="698"
     inkscape:window-x="-6"
     inkscape:window-y="-6"
     inkscape:window-maximized="1"
     inkscape:current-layer="g1" />
  <g
     inkscape:groupmode="layer"
     inkscape:label="Image"
     id="g1">
    <path
       style="fill:#000000"
       d="m 116.19931,167.9904 c -3.48081,-1.40208 -5.45319,-5.42707 -5.9807,-12.20466 -0.77248,-9.92496 -0.64559,-9.90209 -9.11781,-1.64345 -8.785685,8.5642 -13.914705,12.8577 -15.359835,12.8577 -2.38397,0 0.38638,-3.25681 11.40005,-13.40183 11.749995,-10.82328 11.749995,-10.82328 11.749995,-21.07115 0,-5.63633 0.25377,-12.44818 0.56394,-15.13745 0.56393,-4.88957 0.56393,-4.88957 -2.4048,1.85594 -4.67448,10.62126 -10.890798,21.9902 -19.767498,30.34076 -14.735724,13.86231 -36.654085,21.84433 -45.101299,16.51656 -11.565482,-7.29449 -10.601071,-33.79124 2.20578,-60.60283 5.042063,-10.555726 15.041607,-25.970116 25.94859,-39.999986 12.423122,-15.98012 23.024182,-28.331813 27.650512,-28.331813 2.778265,0 -2.527107,6.235908 -6.4873,10.215703 -7.081957,7.117011 -26.620009,30.734422 -36.965836,49.167652 -10.462163,18.640504 -18.159057,33.033584 -16.715041,48.448444 0.774736,8.2703 0.312349,15.92365 5.262783,19.04 4.990988,3.14189 16.04549,-0.43357 26.551283,-7.58425 16.0029,-10.89224 22.133472,-17.52797 34.353386,-41.81577 7.95529,-15.811612 10.36422,-23.254826 10.38644,-43.530776 0.0191,-17.3908 0.0191,-17.3908 -4.98094,-18.79946 -5.49032,-1.5468 -12.053425,-9.304766 -11.678198,-12.66557 0.294551,-2.638213 4.774708,-6.822367 7.151448,-6.822367 3.2232,0 9.80999,6.539307 10.56725,11.765627 0.39148,2.70192 1.16013,5.47508 1.70809,6.16258 2.66054,3.33801 31.72421,-0.48897 47.75141,-6.287714 13.3548,-4.831847 21.07374,-9.3271 28.67945,-16.701944 3.9501,-3.830203 7.66318,-6.666625 8.25128,-6.303159 1.96442,1.214081 0.48804,26.524047 -1.67328,28.685367 -0.60451,0.60451 -2.5103,-0.34738 -5.20806,-2.60129 -5.82742,-4.868672 -8.15653,-5.270911 -13.77585,-2.379106 -11.98972,6.170126 -24.27052,36.788356 -30.49542,66.337832 -1.89602,9.00038 -5.11392,26.79681 -3.53332,29.56957 0.94723,1.66168 0.63101,2.78143 2.93854,-0.25033 4.42313,-5.81135 4.22137,-6.811 7.68184,-13.55555 1.87446,-3.65337 5.88874,-15.89761 6.64567,-16.9146 1.31412,-1.76562 1.50293,-1.77089 4.1827,-0.11682 8.4379,5.20826 8.33658,5.19259 36.05645,5.57617 26.25,0.36323 24.27587,-0.23718 25.41688,-2.35352 1.87451,-3.47683 3.76167,-12.45492 4.90325,-12.45492 1.92828,0 2.14569,3.12036 0.6352,9.11672 -1.52806,6.06613 -1.52806,6.06613 18.13331,5.4179 26.57623,-0.87622 40.10911,-2.09036 63.16136,-5.66669 34.87877,-5.4111 37.39116,-5.77992 46.12019,-6.77043 9.03754,-1.02551 13.2148,-0.60246 12.589,1.27495 -0.61592,1.84774 -9.70144,3.30958 -41.20919,6.63046 -50.69024,5.34269 -58.99739,6.04393 -80.3506,6.78268 -20.6494,0.71441 -20.02456,1.33925 -20.96068,6.18842 -1.19985,6.21527 1.08955,15.09332 4.1157,19.98974 2.4516,3.96676 8.91266,9.97065 15.19558,12.09714 6.40933,2.16927 18.97245,1.68012 25.86982,-1.00724 7.06218,-2.75158 19.34104,-13.86843 22.11667,-20.02367 0.99949,-2.21649 2.33564,-4.02998 2.96922,-4.02998 1.28639,0 5.21309,4.05478 11.0279,11.38759 8.21204,10.35587 22.09884,12.83726 48.79398,8.71887 7.50963,-1.15855 15.0193,-2.10646 16.68815,-2.10646 2.94128,0 4.01864,1.27359 2.08715,2.46731 -2.10934,1.30365 -32.27839,3.66744 -42.55289,3.33409 -13.94572,-0.45246 -19.50995,-2.78571 -29.20725,-12.24751 -6.73118,-6.56771 -6.73118,-6.56771 -9.18295,-3.3108 -4.94418,6.56781 -13.77258,14.08996 -20.1098,17.13433 -6.01295,2.88861 -7.28676,3.12192 -17,3.11376 -9.23065,-0.008 -11.1794,-0.32632 -16.12001,-2.63516 -11.36314,-5.31023 -16.12455,-11.86045 -17.65147,-24.28296 -0.72852,-5.92694 -0.72852,-4.67727 -4.51404,1.45795 -11.53588,18.69628 -28.17029,27.99124 -46.06981,27.95421 -13.14735,-0.0272 -26.41229,-4.64855 -30.27811,-10.54854 -1.61862,-2.47032 -1.61862,-2.47032 -10.04406,5.61844 -10.87635,10.44173 -17.00731,13.35488 -23.0142,10.93529 z m 11.74592,-4.87283 c 2.44518,-1.58534 7.45287,-5.97284 11.1282,-9.75 6.68241,-6.86758 6.68241,-6.86758 5.10154,-12.86758 -5.18399,-19.67517 10.29337,-70.430096 27.67773,-90.763596 4.06907,-4.759357 11.37741,-8.558191 14.43787,-8.558191 1.18541,0 4.33338,-0.09841 6.8155,1.221346 4.51293,2.399549 4.51293,2.399549 5.07113,-5.744471 0.30701,-4.479211 0.42117,-8.281053 0.25369,-8.448537 -0.16749,-0.167484 -3.32833,1.984197 -7.0241,4.781514 -8.35222,6.321778 -15.32028,9.870746 -28.14457,14.334589 -11.62644,4.0469 -26.6908,6.67736 -38.24054,6.67736 -8.13067,0 -8.13067,0 -8.14432,15.25 -0.008,8.3875 -0.25501,16.375 -0.55,17.75 -0.53635,2.5 -0.53635,2.5 1.222,0 0.96709,-1.375 4.07111,-4.8625 6.89782,-7.75 5.32132,-5.43575 9.00635,-6.68699 11.35596,-3.85588 3.59045,4.32622 0.77598,28.264356 -4.69857,39.963196 -3.645,7.78919 -11.854,20.06297 -16.10512,24.07976 -2.81493,2.65976 -3.10791,3.50957 -3.10286,9 0.006,6.97302 1.50321,13.28669 3.7488,15.81291 2.30949,2.59811 7.24712,2.14351 12.29984,-1.13242 z m 70.72459,-7.64579 c 5.38075,-2.65086 10.96197,-9.13208 15.53959,-13.7203 6.4485,-6.46346 14.01537,-18.23458 14.01537,-21.31838 0,-1.34429 0.20906,-1.93236 -8.58377,-1.62301 -16.24734,0.57162 -43.78958,-1.26209 -47.45924,-3.15974 -1.71054,-0.88456 -3.77875,-2.44101 -4.24676,-2.95651 -1.90055,-2.09341 -1.18611,-1.21171 -3.81047,7.18305 -1.98493,6.34935 -6.21463,13.77675 -9.95632,19.36689 -5.41663,8.09251 -5.41663,8.09251 -3.50833,10.67436 4.81814,6.51877 16.66972,10.2254 31.00993,9.69848 8.36724,-0.30745 10.03734,-0.71465 17,-4.14484 z m -76.14157,-29.75815 c 1.95715,-2.46708 5.1624,-10.79873 6.47294,-13.66623 3.86526,-8.45732 7.26217,-28.307556 5.28283,-33.465616 -1.10615,-2.88259 -4.04103,-1.64719 -9.30206,3.91557 -6.18157,6.5361 -9.65173,13.65575 -11.53122,23.658356 -1.71692,9.13739 -3.05376,30.2359 -2.02162,31.90594 0.93559,1.51382 3.18447,-2.37122 11.09913,-12.34802 z m -9.37361,-78.802123 c 0,-3.738818 -5.16434,-10.112083 -7.66698,-10.594046 -1.94594,-0.374755 -5.805781,3.502815 -3.59665,6.716112 1.27832,1.859381 3.09371,4.880581 7.68381,6.517611 2.0989,0.74857 3.92869,1.38078 4.06619,1.40492 0.1375,0.0241 -0.48637,-2.200937 -0.48637,-4.044597 z"
       id="path1"
       sodipodi:nodetypes="ssssssssssssssssssscsssscsssssssssssssssssssssssssssssssssssscsssssssssssssssssscsssssscsssssssssssssssssssssssscs" />
  </g>
</svg>
